<?xml version="1.0" encoding="UTF-8"?>
<!-- Generator: Adobe Illustrator 19.2.1, SVG Export Plug-In . SVG Version: 6.00 Build 0)  -->
<svg version="1.1" id="Layer_1" xmlns="http://www.w3.org/2000/svg" xmlns:xlink="http://www.w3.org/1999/xlink" x="0px" y="0px" width="1440px" height="570px" viewBox="0 0 1440 570" style="enable-background:new 0 0 1440 570;" xml:space="preserve">
<style type="text/css">
	.st0{fill:#545557;}
</style>
<g>
	<path class="st0" d="M720,76c28.2,0,55.6,5.5,81.3,16.4c24.9,10.5,47.2,25.6,66.4,44.8s34.3,41.6,44.8,66.4   c10.9,25.7,16.4,53.1,16.4,81.3s-5.5,55.6-16.4,81.3c-10.5,24.9-25.6,47.2-44.8,66.4c-19.2,19.2-41.6,34.3-66.4,44.8   C775.6,488.5,748.2,494,720,494s-55.6-5.5-81.3-16.4c-24.9-10.5-47.2-25.6-66.4-44.8c-19.2-19.2-34.3-41.6-44.8-66.4   C516.5,340.6,511,313.2,511,285s5.5-55.6,16.4-81.3c10.5-24.9,25.6-47.2,44.8-66.4s41.6-34.3,66.4-44.8C664.4,81.5,691.8,76,720,76    M720,2.6C564,2.6,437.6,129,437.6,285S564,567.4,720,567.4S1002.4,441,1002.4,285S876,2.6,720,2.6L720,2.6z"/>
	<path class="st0" d="M918.9,84.1c-51-50.4-121.1-81.5-198.5-81.5c-67.9,0-130.2,24-178.9,63.9c0,0,63.9,38.5,20,111.2   C720,187.8,732.5,98,732.5,98c-3.5,53.8-51,79.3-51,79.3C894,178.8,918.9,84.1,918.9,84.1z"/>
	<g>
		<path class="st0" d="M631.2,337.4l-63.6-63.6c-5.8-5.8-5.8-15.4,0-21.2v0c5.8-5.8,15.4-5.8,21.2,0l63.6,63.6    c5.8,5.8,5.8,15.4,0,21.2v0C646.6,343.3,637,343.3,631.2,337.4z"/>
		<path class="st0" d="M652.4,273.8l-63.6,63.6c-5.8,5.8-15.4,5.8-21.2,0v0c-5.8-5.8-5.8-15.4,0-21.2l63.6-63.6    c5.8-5.8,15.4-5.8,21.2,0v0C658.3,258.4,658.3,268,652.4,273.8z"/>
	</g>
	<g>
		<path class="st0" d="M851.2,337.4l-63.6-63.6c-5.8-5.8-5.8-15.4,0-21.2v0c5.8-5.8,15.4-5.8,21.2,0l63.6,63.6    c5.8,5.8,5.8,15.4,0,21.2v0C866.6,343.3,857,343.3,851.2,337.4z"/>
		<path class="st0" d="M872.4,273.8l-63.6,63.6c-5.8,5.8-15.4,5.8-21.2,0v0c-5.8-5.8-5.8-15.4,0-21.2l63.6-63.6    c5.8-5.8,15.4-5.8,21.2,0v0C878.3,258.4,878.3,268,872.4,273.8z"/>
	</g>
	<path class="st0" d="M720,409c21,0,40.1,7.9,54.6,20.8c-4.9-25.7-27.5-45.1-54.6-45.1s-49.7,19.4-54.6,45.1   C679.9,416.8,699,409,720,409z"/>
	<g>
		<path class="st0" d="M419.6,440.3h-83.8V570h-61.4V440.3H0v-56L267.9,2.6h67.9V382h83.8V440.3z M274.4,382V194.4    c0-36.8,1.3-78.4,3.9-124.7h-3.1c-12.4,24.7-23.9,45.2-34.7,61.4L64.1,382H274.4z"/>
	</g>
	<g>
		<path class="st0" d="M1440,440.3h-83.8V570h-61.4V440.3h-274.4v-56L1288.3,2.6h67.9V382h83.8V440.3z M1294.9,382V194.4    c0-36.8,1.3-78.4,3.9-124.7h-3.1c-12.4,24.7-23.9,45.2-34.7,61.4L1084.5,382H1294.9z"/>
	</g>
</g>
</svg>